<svg xmlns="http://www.w3.org/2000/svg" width="663.999" height="138.034" viewBox="0 0 663.999 138.034">
  <g id="logo-dark" transform="translate(-530.001 -499.966)">
    <text id="LCT360_LLC" data-name="LCT360 LLC" transform="translate(678 601)" fill="#fff" font-size="92" font-family="Poppins-Bold, Poppins" font-weight="700"><tspan x="0" y="0">LCT360 LLC</tspan></text>
    <g id="Group_1" data-name="Group 1" transform="translate(458.331 294.73)">
      <g id="_ttsiO5aWgfgI9dScdb90H" transform="translate(71.67 205.236)">
        <path id="_iK8zcPzmv90arHuJ8dHp_" d="M48.295,9.739,8.524,32.7V50.51l39.77-22.961L88.064,50.51V32.7Z" transform="translate(-8.524 1.281)" fill="#f90"/>
        <path id="_EvdYjmwpEee_oLcoDMbJs" d="M71.816,95.027l-39.77-22.96V54.259l39.77,22.96,39.769-22.96V72.067Z" transform="translate(7.627 31.7)" fill="#f3722e"/>
        <path id="_ENK-PmC0r9u6aLgbi6Pg1" d="M8.524,46.3l39.77-22.961,15.422,8.9L23.948,55.2v45.923l-15.423-8.9Z" transform="translate(-7.79 10.458)" fill="#f3722e"/>
        <path id="_L_yBvBmPCbNMW5_dWLtFZ" d="M90.149,25.832,50.378,2.872l-15.423,8.9,39.769,22.96V80.66l15.425-8.9Z" transform="translate(9.862 -2.872)" fill="#f3722e"/>
        <path id="_mUjvX9AtBAUEBoPN452LJ" d="M20.351,93.579V47.658l15.423-8.9V84.676l39.769,22.96L60.12,116.542Z" transform="translate(-0.515 21.492)" fill="#f90"/>
        <path id="_EQDmN8FyYEsJVmeMaMdzQ" d="M101.893,73.206V27.284l-15.423-8.9V64.3L46.7,87.263l15.423,8.906Z" transform="translate(17.218 8.07)" fill="#f90"/>
      </g>
    </g>
  </g>
</svg>
