<svg 
 xmlns="http://www.w3.org/2000/svg"
 xmlns:xlink="http://www.w3.org/1999/xlink"
 width="1390px" height="710px">
<path fill-rule="evenodd"  fill="rgb(255, 183, 57)"
 d="M2.500,271.000 C3.881,271.000 5.000,272.119 5.000,273.500 C5.000,274.881 3.881,276.000 2.500,276.000 C1.119,276.000 -0.000,274.881 -0.000,273.500 C-0.000,272.119 1.119,271.000 2.500,271.000 Z"/>
<path fill-rule="evenodd"  fill="rgb(170, 87, 255)"
 d="M1361.500,235.000 C1362.881,235.000 1364.000,236.119 1364.000,237.500 C1364.000,238.881 1362.881,240.000 1361.500,240.000 C1360.119,240.000 1359.000,238.881 1359.000,237.500 C1359.000,236.119 1360.119,235.000 1361.500,235.000 Z"/>
<path fill-rule="evenodd"  fill="rgb(61, 228, 163)"
 d="M272.500,705.000 C273.881,705.000 275.000,706.119 275.000,707.500 C275.000,708.881 273.881,710.000 272.500,710.000 C271.119,710.000 270.000,708.881 270.000,707.500 C270.000,706.119 271.119,705.000 272.500,705.000 Z"/>
<path fill-rule="evenodd"  fill="rgb(61, 228, 163)"
 d="M1387.500,566.000 C1388.881,566.000 1390.000,567.119 1390.000,568.500 C1390.000,569.881 1388.881,571.000 1387.500,571.000 C1386.119,571.000 1385.000,569.881 1385.000,568.500 C1385.000,567.119 1386.119,566.000 1387.500,566.000 Z"/>
<path fill-rule="evenodd"  fill="rgb(254, 4, 94)"
 d="M220.500,57.000 C221.881,57.000 223.000,58.119 223.000,59.500 C223.000,60.881 221.881,62.000 220.500,62.000 C219.119,62.000 218.000,60.881 218.000,59.500 C218.000,58.119 219.119,57.000 220.500,57.000 Z"/>
<path fill-rule="evenodd"  fill="rgb(252, 79, 79)"
 d="M1140.500,31.000 C1141.881,31.000 1143.000,32.119 1143.000,33.500 C1143.000,34.881 1141.881,36.000 1140.500,36.000 C1139.119,36.000 1138.000,34.881 1138.000,33.500 C1138.000,32.119 1139.119,31.000 1140.500,31.000 Z"/>
<path fill-rule="evenodd"  fill="rgb(255, 243, 57)"
 d="M814.500,-0.000 C815.881,-0.000 817.000,1.119 817.000,2.500 C817.000,3.881 815.881,5.000 814.500,5.000 C813.119,5.000 812.000,3.881 812.000,2.500 C812.000,1.119 813.119,-0.000 814.500,-0.000 Z"/>
<path fill-rule="evenodd"  fill="rgb(255, 183, 57)"
 d="M1213.500,414.000 C1214.881,414.000 1216.000,415.119 1216.000,416.500 C1216.000,417.881 1214.881,419.000 1213.500,419.000 C1212.119,419.000 1211.000,417.881 1211.000,416.500 C1211.000,415.119 1212.119,414.000 1213.500,414.000 Z"/>
<path fill-rule="evenodd"  fill="rgb(44, 74, 255)"
 d="M632.000,362.000 C635.314,362.000 638.000,364.686 638.000,368.000 C638.000,371.314 635.314,374.000 632.000,374.000 C628.686,374.000 626.000,371.314 626.000,368.000 C626.000,364.686 628.686,362.000 632.000,362.000 Z"/>
<path fill-rule="evenodd"  fill="rgb(252, 79, 221)"
 d="M272.500,460.000 C273.881,460.000 275.000,461.119 275.000,462.500 C275.000,463.881 273.881,465.000 272.500,465.000 C271.119,465.000 270.000,463.881 270.000,462.500 C270.000,461.119 271.119,460.000 272.500,460.000 Z"/>
<path fill-rule="evenodd"  fill="rgb(252, 79, 177)"
 d="M743.500,191.000 C744.881,191.000 746.000,192.119 746.000,193.500 C746.000,194.881 744.881,196.000 743.500,196.000 C742.119,196.000 741.000,194.881 741.000,193.500 C741.000,192.119 742.119,191.000 743.500,191.000 Z"/>
</svg>